<?xml version="1.0" encoding="UTF-8" standalone="no"?>
<!DOCTYPE svg PUBLIC "-//W3C//DTD SVG 1.1//EN"
 "http://www.w3.org/Graphics/SVG/1.1/DTD/svg11.dtd">
<!-- Generated by graphviz version 2.40.1 (20161225.0304)
 -->
<!-- Title: %3 Pages: 1 -->
<svg width="2125pt" height="692pt"
 viewBox="0.00 0.00 2125.41 692.00" xmlns="http://www.w3.org/2000/svg" xmlns:xlink="http://www.w3.org/1999/xlink">
<g id="graph0" class="graph" transform="scale(1 1) rotate(0) translate(4 688)">
<title>%3</title>
<polygon fill="#ffffff" stroke="transparent" points="-4,4 -4,-688 2121.4055,-688 2121.4055,4 -4,4"/>
<!-- [root] aws_elb.web -->
<g id="node1" class="node">
<title>[root] aws_elb.web</title>
<polygon fill="none" stroke="#000000" points="569.7549,-468 481.3534,-468 481.3534,-432 569.7549,-432 569.7549,-468"/>
<text text-anchor="middle" x="525.5542" y="-445.8" font-family="Times,serif" font-size="14.00" fill="#000000">aws_elb.web</text>
</g>
<!-- [root] aws_instance.web -->
<g id="node2" class="node">
<title>[root] aws_instance.web</title>
<polygon fill="none" stroke="#000000" points="775.5209,-396 657.5874,-396 657.5874,-360 775.5209,-360 775.5209,-396"/>
<text text-anchor="middle" x="716.5542" y="-373.8" font-family="Times,serif" font-size="14.00" fill="#000000">aws_instance.web</text>
</g>
<!-- [root] aws_elb.web&#45;&gt;[root] aws_instance.web -->
<g id="edge1" class="edge">
<title>[root] aws_elb.web&#45;&gt;[root] aws_instance.web</title>
<path fill="none" stroke="#000000" d="M569.8535,-433.3008C596.388,-423.2982 630.4097,-410.4733 659.0081,-399.6928"/>
<polygon fill="#000000" stroke="#000000" points="660.3574,-402.9246 668.4801,-396.1222 657.8883,-396.3745 660.3574,-402.9246"/>
</g>
<!-- [root] aws_security_group.web_inbound_sg -->
<g id="node5" class="node">
<title>[root] aws_security_group.web_inbound_sg</title>
<polygon fill="none" stroke="#000000" points="639.4682,-396 411.6401,-396 411.6401,-360 639.4682,-360 639.4682,-396"/>
<text text-anchor="middle" x="525.5542" y="-373.8" font-family="Times,serif" font-size="14.00" fill="#000000">aws_security_group.web_inbound_sg</text>
</g>
<!-- [root] aws_elb.web&#45;&gt;[root] aws_security_group.web_inbound_sg -->
<g id="edge2" class="edge">
<title>[root] aws_elb.web&#45;&gt;[root] aws_security_group.web_inbound_sg</title>
<path fill="none" stroke="#000000" d="M525.5542,-431.8314C525.5542,-424.131 525.5542,-414.9743 525.5542,-406.4166"/>
<polygon fill="#000000" stroke="#000000" points="529.0543,-406.4132 525.5542,-396.4133 522.0543,-406.4133 529.0543,-406.4132"/>
</g>
<!-- [root] aws_security_group.web_host_sg -->
<g id="node4" class="node">
<title>[root] aws_security_group.web_host_sg</title>
<polygon fill="none" stroke="#000000" points="959.4168,-324 753.6915,-324 753.6915,-288 959.4168,-288 959.4168,-324"/>
<text text-anchor="middle" x="856.5542" y="-301.8" font-family="Times,serif" font-size="14.00" fill="#000000">aws_security_group.web_host_sg</text>
</g>
<!-- [root] aws_instance.web&#45;&gt;[root] aws_security_group.web_host_sg -->
<g id="edge3" class="edge">
<title>[root] aws_instance.web&#45;&gt;[root] aws_security_group.web_host_sg</title>
<path fill="none" stroke="#000000" d="M751.8821,-359.8314C770.2034,-350.4089 792.7643,-338.8062 812.2436,-328.7883"/>
<polygon fill="#000000" stroke="#000000" points="813.9454,-331.8489 821.2375,-324.1628 810.7439,-325.6239 813.9454,-331.8489"/>
</g>
<!-- [root] module.vpc.output.public_subnet_id -->
<g id="node11" class="node">
<title>[root] module.vpc.output.public_subnet_id</title>
<ellipse fill="none" stroke="#000000" cx="1470.5542" cy="-306" rx="161.7933" ry="18"/>
<text text-anchor="middle" x="1470.5542" y="-301.8" font-family="Times,serif" font-size="14.00" fill="#000000">[root] module.vpc.output.public_subnet_id</text>
</g>
<!-- [root] aws_instance.web&#45;&gt;[root] module.vpc.output.public_subnet_id -->
<g id="edge4" class="edge">
<title>[root] aws_instance.web&#45;&gt;[root] module.vpc.output.public_subnet_id</title>
<path fill="none" stroke="#000000" d="M775.331,-372.8009C880.5132,-363.4423 1107.8661,-342.9656 1299.5542,-324 1313.7947,-322.591 1328.6981,-321.0786 1343.5167,-319.5508"/>
<polygon fill="#000000" stroke="#000000" points="1344.1663,-323.0024 1353.753,-318.4917 1343.4459,-316.0395 1344.1663,-323.0024"/>
</g>
<!-- [root] var.ami -->
<g id="node12" class="node">
<title>[root] var.ami</title>
<ellipse fill="none" stroke="#000000" cx="1035.5542" cy="-306" rx="58.9668" ry="18"/>
<text text-anchor="middle" x="1035.5542" y="-301.8" font-family="Times,serif" font-size="14.00" fill="#000000">[root] var.ami</text>
</g>
<!-- [root] aws_instance.web&#45;&gt;[root] var.ami -->
<g id="edge5" class="edge">
<title>[root] aws_instance.web&#45;&gt;[root] var.ami</title>
<path fill="none" stroke="#000000" d="M775.3048,-366.3005C826.501,-355.8934 902.6595,-339.9006 968.5542,-324 972.8862,-322.9547 977.3657,-321.8355 981.8594,-320.6856"/>
<polygon fill="#000000" stroke="#000000" points="982.87,-324.0393 991.6679,-318.1362 981.109,-317.2644 982.87,-324.0393"/>
</g>
<!-- [root] var.instance_ips -->
<g id="node13" class="node">
<title>[root] var.instance_ips</title>
<ellipse fill="none" stroke="#000000" cx="1201.5542" cy="-306" rx="89.3774" ry="18"/>
<text text-anchor="middle" x="1201.5542" y="-301.8" font-family="Times,serif" font-size="14.00" fill="#000000">[root] var.instance_ips</text>
</g>
<!-- [root] aws_instance.web&#45;&gt;[root] var.instance_ips -->
<g id="edge6" class="edge">
<title>[root] aws_instance.web&#45;&gt;[root] var.instance_ips</title>
<path fill="none" stroke="#000000" d="M775.3515,-370.5956C851.2986,-360.8481 987.528,-342.7414 1103.5542,-324 1110.9754,-322.8013 1118.701,-321.4908 1126.4139,-320.1411"/>
<polygon fill="#000000" stroke="#000000" points="1127.2835,-323.5416 1136.5193,-318.3503 1126.062,-316.649 1127.2835,-323.5416"/>
</g>
<!-- [root] var.instance_type -->
<g id="node14" class="node">
<title>[root] var.instance_type</title>
<ellipse fill="none" stroke="#000000" cx="458.5542" cy="-306" rx="94.1878" ry="18"/>
<text text-anchor="middle" x="458.5542" y="-301.8" font-family="Times,serif" font-size="14.00" fill="#000000">[root] var.instance_type</text>
</g>
<!-- [root] aws_instance.web&#45;&gt;[root] var.instance_type -->
<g id="edge7" class="edge">
<title>[root] aws_instance.web&#45;&gt;[root] var.instance_type</title>
<path fill="none" stroke="#000000" d="M657.6871,-361.572C617.0701,-350.237 563.1257,-335.1828 521.6284,-323.6021"/>
<polygon fill="#000000" stroke="#000000" points="522.474,-320.2044 511.9013,-320.8876 520.5924,-326.9468 522.474,-320.2044"/>
</g>
<!-- [root] var.key_name -->
<g id="node15" class="node">
<title>[root] var.key_name</title>
<ellipse fill="none" stroke="#000000" cx="188.5542" cy="-306" rx="81.6268" ry="18"/>
<text text-anchor="middle" x="188.5542" y="-301.8" font-family="Times,serif" font-size="14.00" fill="#000000">[root] var.key_name</text>
</g>
<!-- [root] aws_instance.web&#45;&gt;[root] var.key_name -->
<g id="edge8" class="edge">
<title>[root] aws_instance.web&#45;&gt;[root] var.key_name</title>
<path fill="none" stroke="#000000" d="M657.6994,-361.8739C654.6155,-361.2004 651.5535,-360.57 648.5542,-360 612.5856,-353.164 394.9656,-328.7226 272.3697,-315.1864"/>
<polygon fill="#000000" stroke="#000000" points="272.5853,-311.689 262.2618,-314.0713 271.8176,-318.6468 272.5853,-311.689"/>
</g>
<!-- [root] var.owner_tag -->
<g id="node16" class="node">
<title>[root] var.owner_tag</title>
<ellipse fill="none" stroke="#000000" cx="653.5542" cy="-306" rx="82.5959" ry="18"/>
<text text-anchor="middle" x="653.5542" y="-301.8" font-family="Times,serif" font-size="14.00" fill="#000000">[root] var.owner_tag</text>
</g>
<!-- [root] aws_instance.web&#45;&gt;[root] var.owner_tag -->
<g id="edge9" class="edge">
<title>[root] aws_instance.web&#45;&gt;[root] var.owner_tag</title>
<path fill="none" stroke="#000000" d="M700.6566,-359.8314C693.1384,-351.2392 684.0339,-340.834 675.8411,-331.4708"/>
<polygon fill="#000000" stroke="#000000" points="678.4475,-329.1344 669.2284,-323.9134 673.1794,-333.744 678.4475,-329.1344"/>
</g>
<!-- [root] aws_key_pair.web&#45;key -->
<g id="node3" class="node">
<title>[root] aws_key_pair.web&#45;key</title>
<polygon fill="none" stroke="#000000" points="206.741,-468 62.3673,-468 62.3673,-432 206.741,-432 206.741,-468"/>
<text text-anchor="middle" x="134.5542" y="-445.8" font-family="Times,serif" font-size="14.00" fill="#000000">aws_key_pair.web&#45;key</text>
</g>
<!-- [root] provider.aws -->
<g id="node10" class="node">
<title>[root] provider.aws</title>
<polygon fill="none" stroke="#000000" points="78.5542,-108 -.0542,-90 78.5542,-72 157.1625,-90 78.5542,-108"/>
<text text-anchor="middle" x="78.5542" y="-85.8" font-family="Times,serif" font-size="14.00" fill="#000000">provider.aws</text>
</g>
<!-- [root] aws_key_pair.web&#45;key&#45;&gt;[root] provider.aws -->
<g id="edge10" class="edge">
<title>[root] aws_key_pair.web&#45;key&#45;&gt;[root] provider.aws</title>
<path fill="none" stroke="#000000" d="M122.403,-431.7857C105.9329,-405.2865 78.5542,-354.0148 78.5542,-306 78.5542,-306 78.5542,-306 78.5542,-234 78.5542,-193.876 78.5542,-147.4631 78.5542,-118.4177"/>
<polygon fill="#000000" stroke="#000000" points="82.0542,-118.1853 78.5542,-108.1854 75.0542,-118.1854 82.0542,-118.1853"/>
</g>
<!-- [root] aws_key_pair.web&#45;key&#45;&gt;[root] var.key_name -->
<g id="edge11" class="edge">
<title>[root] aws_key_pair.web&#45;key&#45;&gt;[root] var.key_name</title>
<path fill="none" stroke="#000000" d="M137.3532,-431.923C140.5924,-413.3935 146.772,-383.9783 156.5542,-360 160.3631,-350.6635 165.5992,-341.0215 170.7332,-332.5145"/>
<polygon fill="#000000" stroke="#000000" points="173.8509,-334.1303 176.1916,-323.7973 167.918,-330.4153 173.8509,-334.1303"/>
</g>
<!-- [root] module.onprem_networks.output.office_staff_public_networks -->
<g id="node17" class="node">
<title>[root] module.onprem_networks.output.office_staff_public_networks</title>
<ellipse fill="none" stroke="#000000" cx="1099.5542" cy="-234" rx="255.6038" ry="18"/>
<text text-anchor="middle" x="1099.5542" y="-229.8" font-family="Times,serif" font-size="14.00" fill="#000000">[root] module.onprem_networks.output.office_staff_public_networks</text>
</g>
<!-- [root] aws_security_group.web_host_sg&#45;&gt;[root] module.onprem_networks.output.office_staff_public_networks -->
<g id="edge12" class="edge">
<title>[root] aws_security_group.web_host_sg&#45;&gt;[root] module.onprem_networks.output.office_staff_public_networks</title>
<path fill="none" stroke="#000000" d="M917.5597,-287.9243C951.8709,-277.758 994.8236,-265.0313 1030.3834,-254.495"/>
<polygon fill="#000000" stroke="#000000" points="1031.6101,-257.782 1040.2038,-251.5853 1029.6215,-251.0705 1031.6101,-257.782"/>
</g>
<!-- [root] module.vpc.output.cidr -->
<g id="node18" class="node">
<title>[root] module.vpc.output.cidr</title>
<ellipse fill="none" stroke="#000000" cx="711.5542" cy="-234" rx="114.9605" ry="18"/>
<text text-anchor="middle" x="711.5542" y="-229.8" font-family="Times,serif" font-size="14.00" fill="#000000">[root] module.vpc.output.cidr</text>
</g>
<!-- [root] aws_security_group.web_host_sg&#45;&gt;[root] module.vpc.output.cidr -->
<g id="edge13" class="edge">
<title>[root] aws_security_group.web_host_sg&#45;&gt;[root] module.vpc.output.cidr</title>
<path fill="none" stroke="#000000" d="M819.9645,-287.8314C800.3209,-278.0773 775.9719,-265.9867 755.3291,-255.7365"/>
<polygon fill="#000000" stroke="#000000" points="756.6488,-252.4841 746.1356,-251.1715 753.5356,-258.7537 756.6488,-252.4841"/>
</g>
<!-- [root] module.vpc.output.vpc_id -->
<g id="node19" class="node">
<title>[root] module.vpc.output.vpc_id</title>
<ellipse fill="none" stroke="#000000" cx="453.5542" cy="-234" rx="125.1006" ry="18"/>
<text text-anchor="middle" x="453.5542" y="-229.8" font-family="Times,serif" font-size="14.00" fill="#000000">[root] module.vpc.output.vpc_id</text>
</g>
<!-- [root] aws_security_group.web_host_sg&#45;&gt;[root] module.vpc.output.vpc_id -->
<g id="edge14" class="edge">
<title>[root] aws_security_group.web_host_sg&#45;&gt;[root] module.vpc.output.vpc_id</title>
<path fill="none" stroke="#000000" d="M755.6402,-287.9707C690.0225,-276.2475 605.2647,-261.1046 542.2365,-249.844"/>
<polygon fill="#000000" stroke="#000000" points="542.7734,-246.3846 532.3137,-248.0712 541.5423,-253.2755 542.7734,-246.3846"/>
</g>
<!-- [root] aws_security_group.web_inbound_sg&#45;&gt;[root] module.vpc.output.vpc_id -->
<g id="edge15" class="edge">
<title>[root] aws_security_group.web_inbound_sg&#45;&gt;[root] module.vpc.output.vpc_id</title>
<path fill="none" stroke="#000000" d="M437.2176,-359.9795C401.4411,-350.7274 366.0677,-338.3708 355.5542,-324 346.107,-311.0868 347.4162,-301.7758 355.5542,-288 363.9409,-273.803 377.5403,-263.0839 391.9734,-255.0971"/>
<polygon fill="#000000" stroke="#000000" points="393.716,-258.1372 401.0287,-250.4707 390.5312,-251.9036 393.716,-258.1372"/>
</g>
<!-- [root] module.vpc.aws_internet_gateway.tfb -->
<g id="node6" class="node">
<title>[root] module.vpc.aws_internet_gateway.tfb</title>
<polygon fill="none" stroke="#000000" points="393.5771,-396 165.5312,-396 165.5312,-360 393.5771,-360 393.5771,-396"/>
<text text-anchor="middle" x="279.5542" y="-373.8" font-family="Times,serif" font-size="14.00" fill="#000000">module.vpc.aws_internet_gateway.tfb</text>
</g>
<!-- [root] module.vpc.aws_vpc.tfb -->
<g id="node9" class="node">
<title>[root] module.vpc.aws_vpc.tfb</title>
<polygon fill="none" stroke="#000000" points="771.2995,-180 617.8088,-180 617.8088,-144 771.2995,-144 771.2995,-180"/>
<text text-anchor="middle" x="694.5542" y="-157.8" font-family="Times,serif" font-size="14.00" fill="#000000">module.vpc.aws_vpc.tfb</text>
</g>
<!-- [root] module.vpc.aws_internet_gateway.tfb&#45;&gt;[root] module.vpc.aws_vpc.tfb -->
<g id="edge24" class="edge">
<title>[root] module.vpc.aws_internet_gateway.tfb&#45;&gt;[root] module.vpc.aws_vpc.tfb</title>
<path fill="none" stroke="#000000" d="M281.5098,-359.7858C285.993,-321.6324 298.2952,-235.2509 319.5542,-216 340.5809,-196.9593 503.5476,-179.0598 607.6141,-169.4093"/>
<polygon fill="#000000" stroke="#000000" points="608.169,-172.8732 617.8069,-168.473 607.5286,-165.9025 608.169,-172.8732"/>
</g>
<!-- [root] module.vpc.aws_route.internet_access -->
<g id="node7" class="node">
<title>[root] module.vpc.aws_route.internet_access</title>
<polygon fill="none" stroke="#000000" points="456.3101,-468 224.7982,-468 224.7982,-432 456.3101,-432 456.3101,-468"/>
<text text-anchor="middle" x="340.5542" y="-445.8" font-family="Times,serif" font-size="14.00" fill="#000000">module.vpc.aws_route.internet_access</text>
</g>
<!-- [root] module.vpc.aws_route.internet_access&#45;&gt;[root] module.vpc.aws_internet_gateway.tfb -->
<g id="edge25" class="edge">
<title>[root] module.vpc.aws_route.internet_access&#45;&gt;[root] module.vpc.aws_internet_gateway.tfb</title>
<path fill="none" stroke="#000000" d="M325.1613,-431.8314C318.0638,-423.454 309.5061,-413.3531 301.7301,-404.1749"/>
<polygon fill="#000000" stroke="#000000" points="304.2889,-401.7807 295.1543,-396.4133 298.948,-406.3056 304.2889,-401.7807"/>
</g>
<!-- [root] module.vpc.aws_subnet.public -->
<g id="node8" class="node">
<title>[root] module.vpc.aws_subnet.public</title>
<polygon fill="none" stroke="#000000" points="1563.0786,-252 1374.0297,-252 1374.0297,-216 1563.0786,-216 1563.0786,-252"/>
<text text-anchor="middle" x="1468.5542" y="-229.8" font-family="Times,serif" font-size="14.00" fill="#000000">module.vpc.aws_subnet.public</text>
</g>
<!-- [root] module.vpc.aws_subnet.public&#45;&gt;[root] module.vpc.aws_vpc.tfb -->
<g id="edge26" class="edge">
<title>[root] module.vpc.aws_subnet.public&#45;&gt;[root] module.vpc.aws_vpc.tfb</title>
<path fill="none" stroke="#000000" d="M1373.9499,-217.2504C1370.7832,-216.8097 1367.6446,-216.3912 1364.5542,-216 1156.1624,-189.6237 909.583,-173.6423 781.5436,-166.478"/>
<polygon fill="#000000" stroke="#000000" points="781.5837,-162.9749 771.4051,-165.9153 781.1957,-169.9642 781.5837,-162.9749"/>
</g>
<!-- [root] module.vpc.var.public_subnet -->
<g id="node27" class="node">
<title>[root] module.vpc.var.public_subnet</title>
<ellipse fill="none" stroke="#000000" cx="1468.5542" cy="-162" rx="138.6071" ry="18"/>
<text text-anchor="middle" x="1468.5542" y="-157.8" font-family="Times,serif" font-size="14.00" fill="#000000">[root] module.vpc.var.public_subnet</text>
</g>
<!-- [root] module.vpc.aws_subnet.public&#45;&gt;[root] module.vpc.var.public_subnet -->
<g id="edge27" class="edge">
<title>[root] module.vpc.aws_subnet.public&#45;&gt;[root] module.vpc.var.public_subnet</title>
<path fill="none" stroke="#000000" d="M1468.5542,-215.8314C1468.5542,-208.131 1468.5542,-198.9743 1468.5542,-190.4166"/>
<polygon fill="#000000" stroke="#000000" points="1472.0543,-190.4132 1468.5542,-180.4133 1465.0543,-190.4133 1472.0543,-190.4132"/>
</g>
<!-- [root] module.vpc.aws_vpc.tfb&#45;&gt;[root] provider.aws -->
<g id="edge32" class="edge">
<title>[root] module.vpc.aws_vpc.tfb&#45;&gt;[root] provider.aws</title>
<path fill="none" stroke="#000000" d="M617.5865,-156.6248C514.3371,-148.8485 325.4538,-132.6365 165.5542,-108 153.4064,-106.1283 140.3916,-103.6778 128.2264,-101.1901"/>
<polygon fill="#000000" stroke="#000000" points="128.7498,-97.7239 118.2452,-99.1036 127.3174,-104.5758 128.7498,-97.7239"/>
</g>
<!-- [root] module.vpc.var.cidr -->
<g id="node28" class="node">
<title>[root] module.vpc.var.cidr</title>
<ellipse fill="none" stroke="#000000" cx="1209.5542" cy="-90" rx="102.8747" ry="18"/>
<text text-anchor="middle" x="1209.5542" y="-85.8" font-family="Times,serif" font-size="14.00" fill="#000000">[root] module.vpc.var.cidr</text>
</g>
<!-- [root] module.vpc.aws_vpc.tfb&#45;&gt;[root] module.vpc.var.cidr -->
<g id="edge28" class="edge">
<title>[root] module.vpc.aws_vpc.tfb&#45;&gt;[root] module.vpc.var.cidr</title>
<path fill="none" stroke="#000000" d="M771.5206,-152.2947C852.6829,-141.9181 984.2441,-124.6939 1097.5542,-108 1106.1894,-106.7278 1115.1915,-105.3566 1124.1748,-103.9588"/>
<polygon fill="#000000" stroke="#000000" points="1124.9514,-107.3798 1134.2886,-102.3732 1123.8672,-100.4643 1124.9514,-107.3798"/>
</g>
<!-- [root] module.vpc.var.enable_dns_hostnames -->
<g id="node29" class="node">
<title>[root] module.vpc.var.enable_dns_hostnames</title>
<ellipse fill="none" stroke="#000000" cx="345.5542" cy="-90" rx="170.9546" ry="18"/>
<text text-anchor="middle" x="345.5542" y="-85.8" font-family="Times,serif" font-size="14.00" fill="#000000">[root] module.vpc.var.enable_dns_hostnames</text>
</g>
<!-- [root] module.vpc.aws_vpc.tfb&#45;&gt;[root] module.vpc.var.enable_dns_hostnames -->
<g id="edge29" class="edge">
<title>[root] module.vpc.aws_vpc.tfb&#45;&gt;[root] module.vpc.var.enable_dns_hostnames</title>
<path fill="none" stroke="#000000" d="M617.5326,-146.1102C563.0898,-134.8784 490.0081,-119.8014 433.311,-108.1046"/>
<polygon fill="#000000" stroke="#000000" points="433.7842,-104.6286 423.2833,-106.0358 432.3698,-111.4842 433.7842,-104.6286"/>
</g>
<!-- [root] module.vpc.var.enable_dns_support -->
<g id="node30" class="node">
<title>[root] module.vpc.var.enable_dns_support</title>
<ellipse fill="none" stroke="#000000" cx="694.5542" cy="-90" rx="159.8465" ry="18"/>
<text text-anchor="middle" x="694.5542" y="-85.8" font-family="Times,serif" font-size="14.00" fill="#000000">[root] module.vpc.var.enable_dns_support</text>
</g>
<!-- [root] module.vpc.aws_vpc.tfb&#45;&gt;[root] module.vpc.var.enable_dns_support -->
<g id="edge30" class="edge">
<title>[root] module.vpc.aws_vpc.tfb&#45;&gt;[root] module.vpc.var.enable_dns_support</title>
<path fill="none" stroke="#000000" d="M694.5542,-143.8314C694.5542,-136.131 694.5542,-126.9743 694.5542,-118.4166"/>
<polygon fill="#000000" stroke="#000000" points="698.0543,-118.4132 694.5542,-108.4133 691.0543,-118.4133 698.0543,-118.4132"/>
</g>
<!-- [root] module.vpc.var.name -->
<g id="node31" class="node">
<title>[root] module.vpc.var.name</title>
<ellipse fill="none" stroke="#000000" cx="980.5542" cy="-90" rx="108.1787" ry="18"/>
<text text-anchor="middle" x="980.5542" y="-85.8" font-family="Times,serif" font-size="14.00" fill="#000000">[root] module.vpc.var.name</text>
</g>
<!-- [root] module.vpc.aws_vpc.tfb&#45;&gt;[root] module.vpc.var.name -->
<g id="edge31" class="edge">
<title>[root] module.vpc.aws_vpc.tfb&#45;&gt;[root] module.vpc.var.name</title>
<path fill="none" stroke="#000000" d="M766.3549,-143.9243C810.6585,-132.7709 867.2033,-118.5359 911.0704,-107.4924"/>
<polygon fill="#000000" stroke="#000000" points="911.9521,-110.8797 920.7951,-105.0442 910.2432,-104.0915 911.9521,-110.8797"/>
</g>
<!-- [root] var.region -->
<g id="node33" class="node">
<title>[root] var.region</title>
<ellipse fill="none" stroke="#000000" cx="78.5542" cy="-18" rx="68.1287" ry="18"/>
<text text-anchor="middle" x="78.5542" y="-13.8" font-family="Times,serif" font-size="14.00" fill="#000000">[root] var.region</text>
</g>
<!-- [root] provider.aws&#45;&gt;[root] var.region -->
<g id="edge42" class="edge">
<title>[root] provider.aws&#45;&gt;[root] var.region</title>
<path fill="none" stroke="#000000" d="M78.5542,-71.8314C78.5542,-64.131 78.5542,-54.9743 78.5542,-46.4166"/>
<polygon fill="#000000" stroke="#000000" points="82.0543,-46.4132 78.5542,-36.4133 75.0543,-46.4133 82.0543,-46.4132"/>
</g>
<!-- [root] module.vpc.output.public_subnet_id&#45;&gt;[root] module.vpc.aws_subnet.public -->
<g id="edge34" class="edge">
<title>[root] module.vpc.output.public_subnet_id&#45;&gt;[root] module.vpc.aws_subnet.public</title>
<path fill="none" stroke="#000000" d="M1470.0495,-287.8314C1469.8356,-280.131 1469.5812,-270.9743 1469.3435,-262.4166"/>
<polygon fill="#000000" stroke="#000000" points="1472.842,-262.3122 1469.0656,-252.4133 1465.8447,-262.5066 1472.842,-262.3122"/>
</g>
<!-- [root] module.vpc.output.cidr&#45;&gt;[root] module.vpc.aws_vpc.tfb -->
<g id="edge33" class="edge">
<title>[root] module.vpc.output.cidr&#45;&gt;[root] module.vpc.aws_vpc.tfb</title>
<path fill="none" stroke="#000000" d="M707.2643,-215.8314C705.4462,-208.131 703.2842,-198.9743 701.2636,-190.4166"/>
<polygon fill="#000000" stroke="#000000" points="704.6061,-189.3414 698.9017,-180.4133 697.7934,-190.95 704.6061,-189.3414"/>
</g>
<!-- [root] module.vpc.output.vpc_id&#45;&gt;[root] module.vpc.aws_vpc.tfb -->
<g id="edge35" class="edge">
<title>[root] module.vpc.output.vpc_id&#45;&gt;[root] module.vpc.aws_vpc.tfb</title>
<path fill="none" stroke="#000000" d="M507.9398,-217.752C542.3487,-207.4722 587.1749,-194.0801 624.2693,-182.998"/>
<polygon fill="#000000" stroke="#000000" points="625.4359,-186.3024 634.0155,-180.0862 623.4321,-179.5953 625.4359,-186.3024"/>
</g>
<!-- [root] meta.count&#45;boundary (count boundary fixup) -->
<g id="node20" class="node">
<title>[root] meta.count&#45;boundary (count boundary fixup)</title>
<ellipse fill="none" stroke="#000000" cx="652.5542" cy="-594" rx="191.6931" ry="18"/>
<text text-anchor="middle" x="652.5542" y="-589.8" font-family="Times,serif" font-size="14.00" fill="#000000">[root] meta.count&#45;boundary (count boundary fixup)</text>
</g>
<!-- [root] meta.count&#45;boundary (count boundary fixup)&#45;&gt;[root] aws_key_pair.web&#45;key -->
<g id="edge16" class="edge">
<title>[root] meta.count&#45;boundary (count boundary fixup)&#45;&gt;[root] aws_key_pair.web&#45;key</title>
<path fill="none" stroke="#000000" d="M483.5618,-585.4395C348.5799,-577.0104 178.0514,-562.1565 153.5542,-540 136.688,-524.7454 132.7069,-498.6126 132.4946,-478.4245"/>
<polygon fill="#000000" stroke="#000000" points="135.998,-478.2793 132.6925,-468.2134 128.9993,-478.1436 135.998,-478.2793"/>
</g>
<!-- [root] meta.count&#45;boundary (count boundary fixup)&#45;&gt;[root] module.vpc.aws_route.internet_access -->
<g id="edge20" class="edge">
<title>[root] meta.count&#45;boundary (count boundary fixup)&#45;&gt;[root] module.vpc.aws_route.internet_access</title>
<path fill="none" stroke="#000000" d="M557.1949,-578.3381C502.9285,-568.2206 441.1878,-554.3109 417.5542,-540 403.7682,-531.6522 377.996,-499.7846 360.0847,-476.3296"/>
<polygon fill="#000000" stroke="#000000" points="362.7035,-473.9901 353.8782,-468.128 357.1216,-478.2142 362.7035,-473.9901"/>
</g>
<!-- [root] module.onprem_networks.output.build_servers -->
<g id="node21" class="node">
<title>[root] module.onprem_networks.output.build_servers</title>
<ellipse fill="none" stroke="#000000" cx="880.5542" cy="-522" rx="199.9293" ry="18"/>
<text text-anchor="middle" x="880.5542" y="-517.8" font-family="Times,serif" font-size="14.00" fill="#000000">[root] module.onprem_networks.output.build_servers</text>
</g>
<!-- [root] meta.count&#45;boundary (count boundary fixup)&#45;&gt;[root] module.onprem_networks.output.build_servers -->
<g id="edge17" class="edge">
<title>[root] meta.count&#45;boundary (count boundary fixup)&#45;&gt;[root] module.onprem_networks.output.build_servers</title>
<path fill="none" stroke="#000000" d="M707.456,-576.6626C740.0767,-566.3613 781.6208,-553.2421 815.8326,-542.4384"/>
<polygon fill="#000000" stroke="#000000" points="817.2521,-545.6606 825.734,-539.3116 815.1442,-538.9855 817.2521,-545.6606"/>
</g>
<!-- [root] module.onprem_networks.output.office_core_networks -->
<g id="node22" class="node">
<title>[root] module.onprem_networks.output.office_core_networks</title>
<ellipse fill="none" stroke="#000000" cx="1326.5542" cy="-522" rx="228.8695" ry="18"/>
<text text-anchor="middle" x="1326.5542" y="-517.8" font-family="Times,serif" font-size="14.00" fill="#000000">[root] module.onprem_networks.output.office_core_networks</text>
</g>
<!-- [root] meta.count&#45;boundary (count boundary fixup)&#45;&gt;[root] module.onprem_networks.output.office_core_networks -->
<g id="edge18" class="edge">
<title>[root] meta.count&#45;boundary (count boundary fixup)&#45;&gt;[root] module.onprem_networks.output.office_core_networks</title>
<path fill="none" stroke="#000000" d="M779.3284,-580.4574C893.474,-568.2638 1061.1948,-550.347 1180.8313,-537.5668"/>
<polygon fill="#000000" stroke="#000000" points="1181.2332,-541.0439 1190.8048,-536.5014 1180.4896,-534.0835 1181.2332,-541.0439"/>
</g>
<!-- [root] module.onprem_networks.output.office_guest_public_networks -->
<g id="node23" class="node">
<title>[root] module.onprem_networks.output.office_guest_public_networks</title>
<ellipse fill="none" stroke="#000000" cx="1831.5542" cy="-522" rx="258.8219" ry="18"/>
<text text-anchor="middle" x="1831.5542" y="-517.8" font-family="Times,serif" font-size="14.00" fill="#000000">[root] module.onprem_networks.output.office_guest_public_networks</text>
</g>
<!-- [root] meta.count&#45;boundary (count boundary fixup)&#45;&gt;[root] module.onprem_networks.output.office_guest_public_networks -->
<g id="edge19" class="edge">
<title>[root] meta.count&#45;boundary (count boundary fixup)&#45;&gt;[root] module.onprem_networks.output.office_guest_public_networks</title>
<path fill="none" stroke="#000000" d="M816.9191,-584.6731C999.545,-574.2156 1303.1717,-556.5487 1564.5542,-540 1587.9865,-538.5165 1612.5724,-536.9172 1636.9434,-535.3056"/>
<polygon fill="#000000" stroke="#000000" points="1637.2543,-538.7928 1647.0009,-534.6391 1636.7913,-531.8081 1637.2543,-538.7928"/>
</g>
<!-- [root] output.addresses -->
<g id="node24" class="node">
<title>[root] output.addresses</title>
<ellipse fill="none" stroke="#000000" cx="698.5542" cy="-450" rx="91.3067" ry="18"/>
<text text-anchor="middle" x="698.5542" y="-445.8" font-family="Times,serif" font-size="14.00" fill="#000000">[root] output.addresses</text>
</g>
<!-- [root] meta.count&#45;boundary (count boundary fixup)&#45;&gt;[root] output.addresses -->
<g id="edge21" class="edge">
<title>[root] meta.count&#45;boundary (count boundary fixup)&#45;&gt;[root] output.addresses</title>
<path fill="none" stroke="#000000" d="M655.0133,-575.7005C657.8166,-557.2489 663.1332,-528.1235 671.5542,-504 674.7166,-494.9406 679.07,-485.4549 683.3582,-477.0065"/>
<polygon fill="#000000" stroke="#000000" points="686.5452,-478.4659 688.105,-467.9866 680.3506,-475.2059 686.5452,-478.4659"/>
</g>
<!-- [root] output.elb_address -->
<g id="node25" class="node">
<title>[root] output.elb_address</title>
<ellipse fill="none" stroke="#000000" cx="525.5542" cy="-522" rx="99.0243" ry="18"/>
<text text-anchor="middle" x="525.5542" y="-517.8" font-family="Times,serif" font-size="14.00" fill="#000000">[root] output.elb_address</text>
</g>
<!-- [root] meta.count&#45;boundary (count boundary fixup)&#45;&gt;[root] output.elb_address -->
<g id="edge22" class="edge">
<title>[root] meta.count&#45;boundary (count boundary fixup)&#45;&gt;[root] output.elb_address</title>
<path fill="none" stroke="#000000" d="M621.1609,-576.2022C604.2723,-566.6276 583.2718,-554.7218 565.2582,-544.5094"/>
<polygon fill="#000000" stroke="#000000" points="566.5735,-541.2317 556.1481,-539.3446 563.1212,-547.3212 566.5735,-541.2317"/>
</g>
<!-- [root] output.public_subnet_id -->
<g id="node26" class="node">
<title>[root] output.public_subnet_id</title>
<ellipse fill="none" stroke="#000000" cx="1794.5542" cy="-378" rx="118.3607" ry="18"/>
<text text-anchor="middle" x="1794.5542" y="-373.8" font-family="Times,serif" font-size="14.00" fill="#000000">[root] output.public_subnet_id</text>
</g>
<!-- [root] meta.count&#45;boundary (count boundary fixup)&#45;&gt;[root] output.public_subnet_id -->
<g id="edge23" class="edge">
<title>[root] meta.count&#45;boundary (count boundary fixup)&#45;&gt;[root] output.public_subnet_id</title>
<path fill="none" stroke="#000000" d="M840.2305,-590.3528C1226.8636,-582.3917 2078.0045,-562.3688 2099.5542,-540 2173.0175,-463.7439 1999.9735,-415.6034 1885.5694,-393.0773"/>
<polygon fill="#000000" stroke="#000000" points="1886.206,-389.6356 1875.7232,-391.1729 1884.8766,-396.5082 1886.206,-389.6356"/>
</g>
<!-- [root] output.addresses&#45;&gt;[root] aws_instance.web -->
<g id="edge36" class="edge">
<title>[root] output.addresses&#45;&gt;[root] aws_instance.web</title>
<path fill="none" stroke="#000000" d="M703.0963,-431.8314C705.0426,-424.0463 707.3609,-414.7729 709.5205,-406.1347"/>
<polygon fill="#000000" stroke="#000000" points="712.9209,-406.9636 711.9508,-396.4133 706.1299,-405.2658 712.9209,-406.9636"/>
</g>
<!-- [root] output.elb_address&#45;&gt;[root] aws_elb.web -->
<g id="edge37" class="edge">
<title>[root] output.elb_address&#45;&gt;[root] aws_elb.web</title>
<path fill="none" stroke="#000000" d="M525.5542,-503.8314C525.5542,-496.131 525.5542,-486.9743 525.5542,-478.4166"/>
<polygon fill="#000000" stroke="#000000" points="529.0543,-478.4132 525.5542,-468.4133 522.0543,-478.4133 529.0543,-478.4132"/>
</g>
<!-- [root] output.public_subnet_id&#45;&gt;[root] module.vpc.output.public_subnet_id -->
<g id="edge38" class="edge">
<title>[root] output.public_subnet_id&#45;&gt;[root] module.vpc.output.public_subnet_id</title>
<path fill="none" stroke="#000000" d="M1727.4211,-363.0816C1676.8179,-351.8364 1607.1469,-336.3539 1553.1303,-324.3503"/>
<polygon fill="#000000" stroke="#000000" points="1553.7557,-320.9039 1543.2345,-322.1512 1552.2371,-327.7372 1553.7557,-320.9039"/>
</g>
<!-- [root] provider.aws (close) -->
<g id="node32" class="node">
<title>[root] provider.aws (close)</title>
<ellipse fill="none" stroke="#000000" cx="266.5542" cy="-522" rx="104.3276" ry="18"/>
<text text-anchor="middle" x="266.5542" y="-517.8" font-family="Times,serif" font-size="14.00" fill="#000000">[root] provider.aws (close)</text>
</g>
<!-- [root] provider.aws (close)&#45;&gt;[root] aws_elb.web -->
<g id="edge39" class="edge">
<title>[root] provider.aws (close)&#45;&gt;[root] aws_elb.web</title>
<path fill="none" stroke="#000000" d="M323.7087,-506.9206C363.5443,-496.3055 417.8804,-481.6168 465.5542,-468 467.4364,-467.4624 469.3507,-466.9114 471.283,-466.3515"/>
<polygon fill="#000000" stroke="#000000" points="472.417,-469.6665 481.0321,-463.4995 470.4516,-462.9481 472.417,-469.6665"/>
</g>
<!-- [root] provider.aws (close)&#45;&gt;[root] aws_key_pair.web&#45;key -->
<g id="edge40" class="edge">
<title>[root] provider.aws (close)&#45;&gt;[root] aws_key_pair.web&#45;key</title>
<path fill="none" stroke="#000000" d="M234.9369,-504.7542C217.5017,-495.2441 195.6251,-483.3114 176.7485,-473.0151"/>
<polygon fill="#000000" stroke="#000000" points="178.2104,-469.8257 167.7555,-468.1098 174.8584,-475.971 178.2104,-469.8257"/>
</g>
<!-- [root] provider.aws (close)&#45;&gt;[root] module.vpc.aws_route.internet_access -->
<g id="edge41" class="edge">
<title>[root] provider.aws (close)&#45;&gt;[root] module.vpc.aws_route.internet_access</title>
<path fill="none" stroke="#000000" d="M284.8463,-504.2022C293.8503,-495.4416 304.8602,-484.7293 314.7073,-475.1482"/>
<polygon fill="#000000" stroke="#000000" points="317.2319,-477.5752 321.9584,-468.0931 312.3504,-472.5581 317.2319,-477.5752"/>
</g>
<!-- [root] root -->
<g id="node34" class="node">
<title>[root] root</title>
<ellipse fill="none" stroke="#000000" cx="459.5542" cy="-666" rx="46.8976" ry="18"/>
<text text-anchor="middle" x="459.5542" y="-661.8" font-family="Times,serif" font-size="14.00" fill="#000000">[root] root</text>
</g>
<!-- [root] root&#45;&gt;[root] meta.count&#45;boundary (count boundary fixup) -->
<g id="edge43" class="edge">
<title>[root] root&#45;&gt;[root] meta.count&#45;boundary (count boundary fixup)</title>
<path fill="none" stroke="#000000" d="M493.1722,-653.4586C521.4816,-642.8975 562.5792,-627.5658 595.9508,-615.1163"/>
<polygon fill="#000000" stroke="#000000" points="597.4419,-618.2957 605.5878,-611.5211 594.9952,-611.7372 597.4419,-618.2957"/>
</g>
<!-- [root] root&#45;&gt;[root] provider.aws (close) -->
<g id="edge44" class="edge">
<title>[root] root&#45;&gt;[root] provider.aws (close)</title>
<path fill="none" stroke="#000000" d="M437.7898,-649.7613C403.8788,-624.4598 338.2422,-575.4874 298.8158,-546.0709"/>
<polygon fill="#000000" stroke="#000000" points="300.4532,-542.9257 290.3452,-539.7508 296.2671,-548.5361 300.4532,-542.9257"/>
</g>
</g>
</svg>
